<?xml version="1.0" encoding="UTF-8" standalone="no"?>
<svg
   viewbox="0 0 256 256"
   width="256"
   height="256"
   version="1.1"
   id="svg774"
   sodipodi:docname="drufflebag.svg"
   inkscape:version="1.2.2 (b0a8486, 2022-12-01)"
   xmlns:inkscape="http://www.inkscape.org/namespaces/inkscape"
   xmlns:sodipodi="http://sodipodi.sourceforge.net/DTD/sodipodi-0.dtd"
   xmlns="http://www.w3.org/2000/svg"
   xmlns:svg="http://www.w3.org/2000/svg">
  <sodipodi:namedview
     id="namedview776"
     pagecolor="#ffffff"
     bordercolor="#000000"
     borderopacity="0.25"
     inkscape:showpageshadow="2"
     inkscape:pageopacity="0.0"
     inkscape:pagecheckerboard="0"
     inkscape:deskcolor="#d1d1d1"
     showgrid="false"
     inkscape:zoom="2.4251553"
     inkscape:cx="152.36138"
     inkscape:cy="126.17749"
     inkscape:window-width="1390"
     inkscape:window-height="1032"
     inkscape:window-x="205"
     inkscape:window-y="23"
     inkscape:window-maximized="0"
     inkscape:current-layer="svg774" />
  <defs
     id="defs750" />
  <g
     transform="matrix(2.2319439,0,0,2.3511373,48.474708,-45.655056)"
     id="g772">
    <rect
       fill="#fefefe"
       fill-opacity="0"
       x="-28"
       y="11"
       width="128"
       height="128"
       id="rect752" />
    <g
       transform="translate(-28,11)"
       id="g770">
      <g
         id="g768">
        <path
           d=""
           fill="#ffffff"
           stroke="#000000"
           stroke-width="2"
           id="path754" />
        <path
           d="m 11.860831,23.721662 c 0,0 49.56133,89.168038 49.56133,89.168038 0,0 47.508169,-51.626824 31.607147,-77.843786 C 85.285006,22.277421 62.500049,15.536145 11.860831,23.721662 Z"
           transform="matrix(0.97590745,0,0,0.9180411,-2.6474558,10.371063)"
           fill="#3850ff"
           stroke="#122a89"
           stroke-width="2"
           id="path756" />
        <path
           d="m 11.860831,23.721662 c 0,0 49.56133,89.168038 49.56133,89.168038 0,0 47.508169,-51.626824 31.607147,-77.843786 C 85.285006,22.277421 62.500049,15.536145 11.860831,23.721662 Z"
           transform="matrix(0.67307288,0,0,0.65249284,15.709217,25.141337)"
           fill="#ffffff"
           fill-opacity="0.553"
           stroke="#122a89"
           stroke-width="3"
           id="path758" />
        <path
           d="m 65.445886,27.87067 c 4.370907,-4.967228 8.741815,-9.934455 16.096842,-12.919834 7.355026,-2.985379 17.694171,-3.988911 22.027262,-1.059003 4.33308,2.929908 2.66011,9.793254 -0.42361,15.037839 -3.08371,5.244585 -7.578169,8.870409 -12.072627,12.496233"
           transform="matrix(1,0,0,1.0092066,-2.9332134,0.73735826)"
           fill="none"
           stroke="#122a89"
           stroke-width="2"
           stroke-linecap="round"
           id="path760" />
        <path
           d="m 93.827645,62.269363 c 7.797775,0.657021 15.595545,1.314042 20.544655,-1.059003 4.94911,-2.373044 7.04955,-7.776154 6.98942,-12.919834 -0.0601,-5.143679 -2.28083,-10.027928 -6.14222,-12.284432 -3.86139,-2.256503 -9.36347,-1.885261 -13.55523,-0.635402 -4.191763,1.24986 -7.073197,3.378338 -9.95463,5.506815"
           transform="translate(-2.9332134,1.1187481)"
           fill="none"
           stroke="#122a89"
           stroke-width="2"
           id="path762" />
        <path
           d="m 76.525519,26.297008 c 0,0 15.184121,8.074622 15.184121,8.074622 2.662898,-2.159842 5.325796,-4.319683 7.15285,-7.443792 1.82705,-3.12411 2.81827,-7.212487 0.250977,-8.957783 -2.567287,-1.745296 -8.693073,-1.14751 -13.050814,0.63083 -4.357741,1.778339 -6.947437,4.737231 -9.537134,7.696123 z"
           transform="translate(-2.9332134,1.1187481)"
           fill="#a7b2ff"
           stroke="#122a89"
           stroke-width="2"
           stroke-linecap="round"
           id="path764" />
        <path
           d="m 99.192816,56.717288 c 4.505814,0.389642 9.011634,0.779284 11.871394,-0.628034 2.85975,-1.407319 4.07346,-4.611599 4.03871,-7.662025 -0.0347,-3.050426 -1.31793,-5.946999 -3.54917,-7.285204 -2.23124,-1.338205 -5.41053,-1.118042 -7.83267,-0.376821 -2.42214,0.741221 -4.08713,2.003501 -5.752118,3.265781 0,0 1.223854,12.686303 1.223854,12.686303 z"
           transform="translate(-2.9332134,1.1187481)"
           fill="#a7b2ff"
           stroke="#122a89"
           stroke-width="2"
           id="path766" />
      </g>
    </g>
  </g>
  <path
     style="opacity:0.99;fill:#182ecc;fill-opacity:1;stroke-width:1.14538"
     d="m 182.0168,75.191211 c -1.51427,-2.036168 -5.78224,-6.501364 -7.96347,-8.33146 -10.08513,-8.461603 -24.41094,-14.38873 -42.93413,-17.763458 -1.51192,-0.275458 -2.77038,-0.52341 -2.79657,-0.550999 -0.18371,-0.193511 6.99121,-8.391006 10.61228,-12.124772 6.80361,-7.015334 12.42365,-11.261562 19.9616,-15.081999 13.74057,-6.964106 33.11289,-9.977589 44.57451,-6.933844 6.7016,1.779678 9.87351,5.302006 10.55059,11.716166 0.78552,7.4418 -3.01146,18.723457 -9.51671,28.276185 -4.48334,6.583606 -10.21421,12.599826 -20.54496,21.567932 l -0.83114,0.721506 z m 5.0202,-10.878029 c 8.93161,-7.696354 13.27435,-12.889142 16.39052,-19.598902 1.92857,-4.152581 2.92241,-8.162036 2.91753,-11.770307 -0.003,-2.615876 -0.29025,-4.08854 -1.15644,-5.939471 -2.1454,-4.584472 -6.94217,-6.747243 -14.94732,-6.739461 -9.66339,0.0095 -19.60579,3.024623 -27.03405,8.198595 -3.12819,2.178858 -5.10118,3.918325 -8.43404,7.435735 -2.5207,2.660283 -7.94941,8.966126 -8.0948,9.402713 -0.0235,0.07023 3.63719,2.187422 8.13464,4.704856 4.49743,2.517435 12.97254,7.270783 18.83356,10.562998 5.86101,3.292218 10.67869,5.992114 10.70597,5.99977 0.0272,0.0078 1.23525,-1.007777 2.68443,-2.256526 z"
     id="path895" />
  <path
     style="opacity:0.99;fill:#182ecc;fill-opacity:1;stroke-width:1.14538"
     d="m 206.26653,128.09449 c -1.70013,-0.0737 -4.22594,-0.21933 -5.6129,-0.32357 -3.84031,-0.28867 -10.81379,-0.88976 -10.86073,-0.93616 -0.0229,-0.0228 0.14065,-0.89188 0.36346,-1.93161 1.87346,-8.74251 2.36389,-18.69663 1.29616,-26.307387 -0.79637,-5.676403 -2.51964,-11.343921 -4.87399,-16.029775 l -0.88656,-1.76452 1.82725,-1.430438 c 9.40685,-7.364038 16.71319,-10.927608 25.6631,-12.516829 8.24738,-1.464472 15.49315,-0.754569 20.90471,2.048136 8.10622,4.198296 13.42548,14.393522 13.85697,26.559043 0.41497,11.70025 -3.96807,22.1525 -11.49792,27.41911 -6.11906,4.27986 -15.2686,5.86059 -30.17955,5.214 z m 14.31698,-8.997 c 5.71687,-0.73744 9.54376,-2.55969 12.59762,-5.9986 3.50531,-3.94732 5.38693,-9.532 5.39398,-16.009383 0.005,-4.594366 -0.71546,-8.12715 -2.38735,-11.706348 -3.89611,-8.34094 -10.98338,-11.712825 -21.29844,-10.133085 -5.90291,0.904023 -10.86087,3.32825 -17.32809,8.472668 -1.72929,1.375574 -1.89395,1.554106 -1.84206,1.997328 0.0313,0.267697 0.71641,7.73107 1.52239,16.58527 0.80597,8.85419 1.48244,16.11082 1.50326,16.12583 0.15027,0.10827 10.51154,0.89826 13.13462,1.00142 2.37051,0.0931 6.66542,-0.0721 8.70407,-0.3351 z"
     id="path897" />
</svg>
